<svg viewBox="0 0 22.1333 13.3213" xmlns="http://www.w3.org/2000/svg" xmlns:xlink="http://www.w3.org/1999/xlink" width="22.133301" height="13.321289" fill="none" customFrame="#000000">
	<path id="Arrow" d="M0 -1L20.129 -1L20.129 1L0 1L0 -1ZM0.02 0.98L0 1C-0.56 1 -1 0.56 -1 -0C-1 -0.56 -0.56 -1 0 -1L0.02 -0.98L0.02 0.98ZM18.7148 0L13.7651 -4.94975C13.3691 -5.34573 13.3691 -5.96798 13.7651 -6.36396C14.1611 -6.75994 14.7833 -6.75994 15.1793 -6.36396L20.8361 -0.707107C21.2321 -0.311127 21.2321 0.311127 20.8361 0.707107L15.1793 6.36396C14.7833 6.75994 14.1611 6.75994 13.7651 6.36396C13.3691 5.96798 13.3691 5.34573 13.7651 4.94975L18.7148 0Z" fill="rgb(29.75,27.1469,27.1469)" fill-rule="nonzero" transform="matrix(-1,-8.74228e-08,8.74228e-08,-1,21.1333,6.66064)" />
</svg>
