<svg viewBox="0 0 72 72" xmlns="http://www.w3.org/2000/svg" xmlns:xlink="http://www.w3.org/1999/xlink" width="72.000000" height="72.000000" fill="none" customFrame="#000000">
	<defs>
		<filter id="pixso_custom_mask_type_alpha">
			<feColorMatrix type="matrix" values="0 0 0 0 1 0 0 0 0 1 0 0 0 0 1 0 0 0 1 0 " />
		</filter>
	</defs>
	<mask id="mask_2" width="72.000000" height="72.000000" x="0.000000" y="0.000000" maskUnits="userSpaceOnUse">
		<g filter="url(#pixso_custom_mask_type_alpha)">
			<circle id="Ellipse 153" cx="36" cy="36" r="36" fill="rgb(102,28,231)" />
		</g>
	</mask>
	<g id="Circle">
		<circle id="BG" cx="36" cy="36" r="36" fill="rgb(102,28,231)" />
		<path id="01" d="M28.528 48.736C26.896 48.736 25.456 48.3893 24.208 47.696C22.96 46.992 21.984 46.016 21.28 44.768C20.5867 43.52 20.24 42.08 20.24 40.448L20.24 33.024C20.24 31.392 20.5867 29.952 21.28 28.704C21.984 27.456 22.96 26.4853 24.208 25.792C25.456 25.088 26.896 24.736 28.528 24.736C30.16 24.736 31.5947 25.088 32.832 25.792C34.08 26.4853 35.056 27.456 35.76 28.704C36.464 29.952 36.816 31.392 36.816 33.024L36.816 40.448C36.816 42.08 36.464 43.52 35.76 44.768C35.056 46.016 34.08 46.992 32.832 47.696C31.5947 48.3893 30.16 48.736 28.528 48.736ZM28.528 45.072C29.3387 45.072 30.0747 44.88 30.736 44.496C31.3973 44.1013 31.92 43.5787 32.304 42.928C32.688 42.2667 32.88 41.5307 32.88 40.72L32.88 32.736C32.88 31.9147 32.688 31.1787 32.304 30.528C31.92 29.8667 31.3973 29.344 30.736 28.96C30.0747 28.5653 29.3387 28.368 28.528 28.368C27.7173 28.368 26.9813 28.5653 26.32 28.96C25.6587 29.344 25.136 29.8667 24.752 30.528C24.368 31.1787 24.176 31.9147 24.176 32.736L24.176 40.72C24.176 41.5307 24.368 42.2667 24.752 42.928C25.136 43.5787 25.6587 44.1013 26.32 44.496C26.9813 44.88 27.7173 45.072 28.528 45.072ZM45.3025 48.256L45.3025 29.424L40.9825 32.064L40.9825 27.808L45.3025 25.216L49.2385 25.216L49.2385 48.256L45.3025 48.256Z" fill="rgb(255,255,255)" fill-rule="nonzero" />
		<g id="Circle Bottom" mask="url(#mask_2)">
			<circle id="Ellipse 154" cx="36" cy="72" r="21" fill="rgb(255,255,255)" fill-opacity="0.239999995" />
		</g>
	</g>
</svg>
