<svg viewBox="0 0 80 80" xmlns="http://www.w3.org/2000/svg" xmlns:xlink="http://www.w3.org/1999/xlink" width="80.000000" height="80.000000" fill="none" customFrame="#000000">
	<mask id="mask_3" width="72.000000" height="72.000000" x="4.000000" y="0.000000" maskUnits="userSpaceOnUse">
		<g filter="url(#pixso_custom_mask_type_alpha)">
			<g filter="url(#filter_0)">
				<circle id="Ellipse 153" cx="40" cy="36" r="36" fill="rgb(102,28,231)" />
			</g>
		</g>
	</mask>
	<defs>
		<g id="pixso_custom_effect_0">
			<effect x="0.000000" y="4.000000" visibility="visible" fill="rgb(0,0,0)" fill-opacity="0.25" effectType="dropShadow" stdDeviation="4" radius="0" />
		</g>
		<filter id="filter_0" width="80.000000" height="80.000000" x="0.000000" y="0.000000" filterUnits="userSpaceOnUse" customEffect="url(#pixso_custom_effect_0)" color-interpolation-filters="sRGB">
			<feFlood flood-opacity="0" result="BackgroundImageFix" />
			<feOffset dx="0.000000" dy="4.000000" in="SourceAlpha" />
			<feGaussianBlur stdDeviation="1.33333337" />
			<feColorMatrix type="matrix" values="0 0 0 0 0 0 0 0 0 0 0 0 0 0 0 0 0 0 0.25 0 " />
			<feBlend result="effect_dropShadow_1" in2="BackgroundImageFix" mode="normal" />
			<feBlend result="shape" in="SourceGraphic" in2="effect_dropShadow_1" mode="normal" />
		</filter>
		<filter id="pixso_custom_mask_type_alpha">
			<feColorMatrix type="matrix" values="0 0 0 0 1 0 0 0 0 1 0 0 0 0 1 0 0 0 1 0 " />
		</filter>
	</defs>
	<g id="Circle">
		<circle id="Ellipse 153" cx="40" cy="36" r="36" fill="rgb(102,28,231)" />
		<path id="02" d="M32.528 48.736C30.896 48.736 29.456 48.3893 28.208 47.696C26.96 46.992 25.984 46.016 25.28 44.768C24.5867 43.52 24.24 42.08 24.24 40.448L24.24 33.024C24.24 31.392 24.5867 29.952 25.28 28.704C25.984 27.456 26.96 26.4853 28.208 25.792C29.456 25.088 30.896 24.736 32.528 24.736C34.16 24.736 35.5947 25.088 36.832 25.792C38.08 26.4853 39.056 27.456 39.76 28.704C40.464 29.952 40.816 31.392 40.816 33.024L40.816 40.448C40.816 42.08 40.464 43.52 39.76 44.768C39.056 46.016 38.08 46.992 36.832 47.696C35.5947 48.3893 34.16 48.736 32.528 48.736ZM32.528 45.072C33.3387 45.072 34.0747 44.88 34.736 44.496C35.3973 44.1013 35.92 43.5787 36.304 42.928C36.688 42.2667 36.88 41.5307 36.88 40.72L36.88 32.736C36.88 31.9147 36.688 31.1787 36.304 30.528C35.92 29.8667 35.3973 29.344 34.736 28.96C34.0747 28.5653 33.3387 28.368 32.528 28.368C31.7173 28.368 30.9813 28.5653 30.32 28.96C29.6587 29.344 29.136 29.8667 28.752 30.528C28.368 31.1787 28.176 31.9147 28.176 32.736L28.176 40.72C28.176 41.5307 28.368 42.2667 28.752 42.928C29.136 43.5787 29.6587 44.1013 30.32 44.496C30.9813 44.88 31.7173 45.072 32.528 45.072ZM44.6625 48.224L44.6625 44.864L54.5185 36.08C55.2865 35.3973 55.8198 34.752 56.1185 34.144C56.4172 33.536 56.5665 32.9493 56.5665 32.384C56.5665 31.616 56.4012 30.9333 56.0705 30.336C55.7398 29.728 55.2812 29.248 54.6945 28.896C54.1185 28.544 53.4518 28.368 52.6945 28.368C51.8945 28.368 51.1852 28.5547 50.5665 28.928C49.9585 29.2907 49.4838 29.776 49.1425 30.384C48.8012 30.992 48.6412 31.648 48.6625 32.352L44.6945 32.352C44.6945 30.816 45.0358 29.4773 45.7185 28.336C46.4118 27.1947 47.3612 26.3093 48.5665 25.68C49.7825 25.0507 51.1852 24.736 52.7745 24.736C54.2465 24.736 55.5692 25.0667 56.7425 25.728C57.9158 26.3787 58.8385 27.2853 59.5105 28.448C60.1825 29.6 60.5185 30.928 60.5185 32.432C60.5185 33.5307 60.3692 34.4533 60.0705 35.2C59.7718 35.9467 59.3238 36.6347 58.7265 37.264C58.1398 37.8933 57.4092 38.592 56.5345 39.36L49.5425 45.552L49.1905 44.592L60.5185 44.592L60.5185 48.224L44.6625 48.224Z" fill="rgb(255,255,255)" fill-rule="nonzero" />
		<g id="Circle Bottom" mask="url(#mask_3)">
			<circle id="Ellipse 154" cx="40" cy="72" r="21" fill="rgb(255,255,255)" fill-opacity="0.239999995" />
		</g>
	</g>
</svg>
