<svg viewBox="0 0 72 72" xmlns="http://www.w3.org/2000/svg" xmlns:xlink="http://www.w3.org/1999/xlink" width="72.000000" height="72.000000" fill="none" customFrame="#000000">
	<defs>
		<filter id="pixso_custom_mask_type_alpha">
			<feColorMatrix type="matrix" values="0 0 0 0 1 0 0 0 0 1 0 0 0 0 1 0 0 0 1 0 " />
		</filter>
	</defs>
	<mask id="mask_4" width="72.000000" height="72.000000" x="0.000000" y="0.000000" maskUnits="userSpaceOnUse">
		<g filter="url(#pixso_custom_mask_type_alpha)">
			<circle id="Ellipse 153" cx="36" cy="36" r="36" fill="rgb(102,28,231)" />
		</g>
	</mask>
	<g id="Circle">
		<circle id="Ellipse 153" cx="36" cy="36" r="36" fill="rgb(102,28,231)" />
		<path id="03" d="M28.528 48.736C26.896 48.736 25.456 48.3893 24.208 47.696C22.96 46.992 21.984 46.016 21.28 44.768C20.5867 43.52 20.24 42.08 20.24 40.448L20.24 33.024C20.24 31.392 20.5867 29.952 21.28 28.704C21.984 27.456 22.96 26.4853 24.208 25.792C25.456 25.088 26.896 24.736 28.528 24.736C30.16 24.736 31.5947 25.088 32.832 25.792C34.08 26.4853 35.056 27.456 35.76 28.704C36.464 29.952 36.816 31.392 36.816 33.024L36.816 40.448C36.816 42.08 36.464 43.52 35.76 44.768C35.056 46.016 34.08 46.992 32.832 47.696C31.5947 48.3893 30.16 48.736 28.528 48.736ZM28.528 45.072C29.3387 45.072 30.0747 44.88 30.736 44.496C31.3973 44.1013 31.92 43.5787 32.304 42.928C32.688 42.2667 32.88 41.5307 32.88 40.72L32.88 32.736C32.88 31.9147 32.688 31.1787 32.304 30.528C31.92 29.8667 31.3973 29.344 30.736 28.96C30.0747 28.5653 29.3387 28.368 28.528 28.368C27.7173 28.368 26.9813 28.5653 26.32 28.96C25.6587 29.344 25.136 29.8667 24.752 30.528C24.368 31.1787 24.176 31.9147 24.176 32.736L24.176 40.72C24.176 41.5307 24.368 42.2667 24.752 42.928C25.136 43.5787 25.6587 44.1013 26.32 44.496C26.9813 44.88 27.7173 45.072 28.528 45.072ZM47.8945 48.688C46.7425 48.688 45.6545 48.464 44.6305 48.016C43.6065 47.568 42.7158 46.9333 41.9585 46.112C41.2118 45.2907 40.6732 44.32 40.3425 43.2L44.0705 42.192C44.3372 43.1093 44.8225 43.8187 45.5265 44.32C46.2412 44.8107 47.0252 45.0507 47.8785 45.04C48.6358 45.04 49.3132 44.864 49.9105 44.512C50.5078 44.16 50.9772 43.6853 51.3185 43.088C51.6598 42.48 51.8305 41.8027 51.8305 41.056C51.8305 39.9147 51.4625 38.96 50.7265 38.192C49.9905 37.424 49.0412 37.04 47.8785 37.04C47.5265 37.04 47.1798 37.088 46.8385 37.184C46.5078 37.28 46.1878 37.4133 45.8785 37.584L44.1185 34.544L51.8625 27.92L52.1985 28.848L41.2385 28.848L41.2385 25.216L55.3665 25.216L55.3665 28.864L49.1425 34.848L49.1105 33.712C50.5078 33.808 51.6972 34.1973 52.6785 34.88C53.6705 35.5627 54.4278 36.4427 54.9505 37.52C55.4838 38.5973 55.7505 39.776 55.7505 41.056C55.7505 42.5067 55.3932 43.808 54.6785 44.96C53.9745 46.112 53.0252 47.024 51.8305 47.696C50.6465 48.3573 49.3345 48.688 47.8945 48.688Z" fill="rgb(255,255,255)" fill-rule="nonzero" />
		<g id="Circle Bottom" mask="url(#mask_4)">
			<circle id="Ellipse 154" cx="36" cy="72" r="21" fill="rgb(255,255,255)" fill-opacity="0.239999995" />
		</g>
	</g>
</svg>
