<svg viewBox="0 0 69.6624 70" xmlns="http://www.w3.org/2000/svg" xmlns:xlink="http://www.w3.org/1999/xlink" width="69.662354" height="70.000000" fill="none" customFrame="#000000">
	<g id="Circle">
		<ellipse id="BG" rx="34.831188" ry="35.000000" cx="34.8311882" cy="35" fill="rgb(92.194,185.938,153.35)" />
		<path id="hr" d="M44.9006 43.128L46.5966 43.128L46.5966 38.632C46.5966 37.9493 46.6952 37.4053 46.8926 37C47.0952 36.5893 47.3619 36.2933 47.6926 36.112C48.0232 35.9307 48.3886 35.84 48.7886 35.84C49.2472 35.84 49.6206 35.9333 49.9086 36.12C50.1966 36.3067 50.4179 36.552 50.5726 36.856C50.7272 37.16 50.8312 37.4907 50.8846 37.848C50.9432 38.2 50.9726 38.544 50.9726 38.88L50.9726 43.128L52.6686 43.128L52.6686 38.328C52.6686 38.0613 52.6446 37.752 52.5966 37.4C52.5486 37.048 52.4579 36.688 52.3246 36.32C52.1912 35.952 51.9966 35.6133 51.7406 35.304C51.4899 34.9893 51.1619 34.736 50.7566 34.544C50.3512 34.352 49.8499 34.256 49.2526 34.256C48.6286 34.256 48.0739 34.368 47.5886 34.592C47.1086 34.816 46.7112 35.1253 46.3966 35.52L46.3966 31.608L44.9006 31.608L44.9006 43.128ZM54.7523 43.128L56.4403 43.128L56.4403 38.768C56.4403 38.2613 56.5203 37.792 56.6803 37.36C56.8403 36.928 57.123 36.5813 57.5283 36.32C57.8163 36.1333 58.1337 36.024 58.4803 35.992C58.827 35.96 59.139 35.9813 59.4163 36.056L59.4163 34.488C59.027 34.4133 58.6137 34.416 58.1763 34.496C57.7443 34.576 57.3657 34.736 57.0403 34.976C56.7203 35.1893 56.4537 35.4853 56.2403 35.864L56.2403 34.488L54.7523 34.488L54.7523 43.128Z" fill="rgb(255,255,255)" fill-rule="nonzero" />
		<path id="24" d="M14.1375 44.18L25.8255 44.18L25.8255 41.792L18.0135 41.792L23.0175 37.328C23.6415 36.776 24.1615 36.264 24.5775 35.792C24.9935 35.32 25.3055 34.808 25.5135 34.256C25.7215 33.696 25.8255 33.024 25.8255 32.24C25.8255 31.144 25.5735 30.168 25.0695 29.312C24.5735 28.456 23.8935 27.784 23.0295 27.296C22.1655 26.8 21.1895 26.552 20.1015 26.552C18.9575 26.552 17.9375 26.792 17.0415 27.272C16.1535 27.744 15.4575 28.404 14.9535 29.252C14.4495 30.092 14.1975 31.072 14.1975 32.192L16.7655 32.192C16.7575 31.608 16.8935 31.072 17.1735 30.584C17.4615 30.088 17.8535 29.692 18.3495 29.396C18.8455 29.092 19.4135 28.94 20.0535 28.94C20.9815 28.94 21.7455 29.252 22.3455 29.876C22.9455 30.5 23.2455 31.276 23.2455 32.204C23.2455 32.692 23.1335 33.18 22.9095 33.668C22.6935 34.148 22.2815 34.66 21.6735 35.204L14.1495 41.948L14.1375 44.18ZM34.8347 44.192L37.3787 44.192L37.3787 41.18L39.0947 41.18L39.0947 38.804L37.3787 38.804L37.3787 34.124L34.8347 34.124L34.8347 38.804L29.9027 38.804L35.5187 26.912L32.6507 26.912L27.0347 38.804L27.0347 41.18L34.8347 41.18L34.8347 44.192Z" fill="rgb(255,255,255)" fill-rule="nonzero" />
	</g>
</svg>
