<svg viewBox="0 0 224.392 126.673" xmlns="http://www.w3.org/2000/svg" xmlns:xlink="http://www.w3.org/1999/xlink" width="224.392090" height="126.672852" fill="none">
	<rect id="logo-8 1" width="224.392090" height="126.672951" x="0.000000" y="0.000000" fill="rgb(255,255,255)" fill-opacity="0" />
	<path id="Vector" d="M52.2793 61.2732C51.801 61.7561 51.4347 62.3391 51.2065 62.9804C50.9783 63.6217 50.8938 64.3056 50.9591 64.9834L50.9364 64.9606C51.0035 65.7585 50.8963 66.5614 50.6223 67.3134C50.3482 68.0654 49.914 68.7483 49.3499 69.3144C48.7857 69.8806 48.1052 70.3164 47.3559 70.5914C46.6066 70.8664 45.8066 70.974 45.0116 70.9066L45.0343 70.9294C44.0833 70.8406 43.1282 71.0483 42.2991 71.5242C41.4701 72.0001 40.8075 72.721 40.4016 73.5887C39.9958 74.4564 39.8665 75.4285 40.0314 76.3727C40.1962 77.3168 40.6472 78.1869 41.3229 78.8643C41.9985 79.5418 42.8659 79.9936 43.8068 80.1582C44.7477 80.3228 45.7163 80.1922 46.5805 79.7841C47.4447 79.376 48.1625 78.7104 48.6359 77.8779C49.1094 77.0455 49.3154 76.0868 49.2261 75.1325L49.2501 75.1553C49.1829 74.3574 49.2901 73.5545 49.5642 72.8025C49.8382 72.0505 50.2724 71.3676 50.8366 70.8014C51.4007 70.2352 52.0812 69.7995 52.8305 69.5245C53.5798 69.2495 54.3798 69.1419 55.1748 69.2092L55.1509 69.1864C55.9277 69.2565 56.7096 69.1287 57.4241 68.8148C58.1386 68.5009 58.7625 68.0111 59.2382 67.3907C59.7138 66.7703 60.0257 66.0395 60.145 65.266C60.2642 64.4924 60.187 63.7012 59.9204 62.9656C59.6538 62.2299 59.2065 61.5738 58.62 61.0578C58.0334 60.5419 57.3266 60.1829 56.5649 60.0142C55.8033 59.8454 55.0116 59.8723 54.2631 60.0924C53.5146 60.3125 52.8336 60.7186 52.2831 61.2732L52.2793 61.2732Z" fill="rgb(29.75,27.1469,27.1469)" fill-rule="nonzero" />
	<path id="Vector" d="M42.9678 67.9423L42.9439 67.9195C43.6196 67.9878 44.3019 67.9046 44.9417 67.6759C45.5814 67.4471 46.1624 67.0785 46.6428 66.5968C47.1232 66.115 47.4909 65.5321 47.7193 64.8903C47.9478 64.2485 48.0312 63.5637 47.9636 62.8855L47.9876 62.9083C47.9205 62.1105 48.0277 61.3075 48.3017 60.5556C48.5757 59.8036 49.01 59.1207 49.5741 58.5545C50.1383 57.9883 50.8187 57.5525 51.568 57.2775C52.3173 57.0025 53.1174 56.895 53.9124 56.9623L53.8884 56.9395C54.8395 57.0291 55.7949 56.8222 56.6245 56.3468C57.454 55.8714 58.1172 55.1509 58.5237 54.2833C58.9301 53.4158 59.06 52.4435 58.8956 51.4992C58.7312 50.5548 58.2806 49.6843 57.6051 49.0064C56.9297 48.3286 56.0623 47.8763 55.1214 47.7113C54.1804 47.5464 53.2116 47.6767 52.3471 48.0847C51.4827 48.4926 50.7647 49.1582 50.291 49.9907C49.8174 50.8232 49.6111 51.782 49.7004 52.7365L49.6777 52.7124C49.7451 53.5103 49.638 54.3134 49.3641 55.0654C49.0901 55.8175 48.6559 56.5005 48.0917 57.0668C47.5275 57.633 46.8469 58.0688 46.0975 58.3437C45.3481 58.6186 44.548 58.726 43.7529 58.6585L43.7757 58.6825C43.1 58.6142 42.4176 58.6974 41.7779 58.9262C41.1381 59.155 40.5571 59.5235 40.0767 60.0053C39.5963 60.487 39.2286 61.0699 39.0002 61.7117C38.7717 62.3536 38.6883 63.0383 38.7559 63.7165L38.7332 63.6937C38.8 64.4915 38.6927 65.2943 38.4186 66.0462C38.1445 66.7981 37.7103 67.4809 37.1462 68.0471C36.5821 68.6132 35.9017 69.049 35.1525 69.3241C34.4033 69.5991 33.6033 69.7069 32.8084 69.6397L32.8311 69.6625C31.88 69.5729 30.9246 69.7799 30.0951 70.2552C29.2655 70.7306 28.6023 71.4512 28.1959 72.3187C27.7894 73.1863 27.6595 74.1585 27.8239 75.1029C27.9883 76.0472 28.4389 76.9177 29.1144 77.5956C29.7898 78.2735 30.6572 78.7257 31.5982 78.8907C32.5392 79.0557 33.5079 78.9253 34.3724 78.5174C35.2368 78.1095 35.9548 77.4439 36.4285 76.6114C36.9022 75.7789 37.1084 74.82 37.0191 73.8656L37.0431 73.8884C36.976 73.0905 37.0831 72.2876 37.3572 71.5356C37.6312 70.7836 38.0654 70.1007 38.6296 69.5345C39.1937 68.9683 39.8742 68.5326 40.6235 68.2576C41.3728 67.9826 42.1728 67.875 42.9678 67.9423Z" fill="rgb(29.75,27.1469,27.1469)" fill-rule="nonzero" />
	<path id="Vector" d="M34.5087 65.4C34.9871 64.9171 35.3534 64.3342 35.5814 63.6928C35.8094 63.0515 35.8935 62.3675 35.8277 61.6897L35.8517 61.7125C35.7846 60.9145 35.8918 60.1113 36.166 59.3591C36.4401 58.6069 36.8746 57.9239 37.439 57.3577C38.0035 56.7914 38.6843 56.3557 39.4339 56.0809C40.1835 55.8061 40.9838 55.6988 41.779 55.7665L41.7551 55.7437C42.7058 55.8331 43.6608 55.626 44.49 55.1507C45.3191 54.6754 45.982 53.9549 46.3882 53.0877C46.7944 52.2204 46.9242 51.2485 46.7598 50.3045C46.5954 49.3605 46.1449 48.4903 45.4697 47.8127C44.7945 47.1351 43.9275 46.683 42.9868 46.518C42.0462 46.3531 41.0778 46.4833 40.2136 46.891C39.3494 47.2986 38.6316 47.9639 38.158 48.796C37.6843 49.6281 37.478 50.5866 37.5671 51.5407L37.5443 51.5179C37.6114 52.3158 37.5042 53.1187 37.2302 53.8707C36.9562 54.6227 36.522 55.3056 35.9578 55.8717C35.3937 56.4379 34.7132 56.8737 33.9639 57.1487C33.2146 57.4237 32.4146 57.5313 31.6196 57.4639L31.6423 57.4867C30.8655 57.4168 30.0837 57.5448 29.3693 57.8589C28.6549 58.1729 28.0311 58.6628 27.5556 59.2833C27.0801 59.9037 26.7683 60.6345 26.6492 61.4081C26.5301 62.1816 26.6075 62.9728 26.8741 63.7083C27.1408 64.4438 27.5882 65.0999 28.1747 65.6158C28.7613 66.1316 29.4682 66.4905 30.2297 66.6592C30.9913 66.8279 31.783 66.8009 32.5315 66.5808C33.2799 66.3607 33.9609 65.9545 34.5113 65.4L34.5087 65.4Z" fill="rgb(29.75,27.1469,27.1469)" fill-rule="nonzero" />
	<path id="Vector" d="M73.6079 52.7656L77.3566 52.7656L77.3566 71.0737L73.6079 71.0737L73.6079 52.7656Z" fill="rgb(29.75,27.1469,27.1469)" fill-rule="nonzero" />
	<path id="Vector" d="M79.4797 64.8047C79.4744 63.489 79.8584 62.2014 80.5829 61.1049C81.3074 60.0084 82.3399 59.1523 83.5496 58.6452C84.7593 58.1381 86.0917 58.0026 87.3782 58.2561C88.6646 58.5095 89.8472 59.1404 90.776 60.0689C91.7049 60.9974 92.3383 62.1816 92.596 63.4716C92.8537 64.7617 92.7241 66.0994 92.2236 67.3155C91.7231 68.5315 90.8743 69.5711 89.7846 70.3026C88.6949 71.0342 87.4135 71.4247 86.1025 71.4247C85.2322 71.4346 84.3687 71.2704 83.5625 70.9416C82.7562 70.6127 82.0234 70.1259 81.4067 69.5096C80.7901 68.8932 80.3021 68.1597 79.9712 67.3519C79.6404 66.544 79.4732 65.6781 79.4797 64.8047ZM88.9765 64.8047C88.9609 64.2376 88.779 63.6877 88.4536 63.2238C88.1283 62.7598 87.6739 62.4024 87.1472 62.1962C86.6206 61.9901 86.0451 61.9442 85.4926 62.0645C84.9402 62.1848 84.4353 62.4659 84.0412 62.8726C83.647 63.2793 83.3811 63.7935 83.2766 64.3511C83.172 64.9086 83.2336 65.4847 83.4536 66.0073C83.6735 66.53 84.0421 66.9759 84.5133 67.2894C84.9844 67.603 85.5372 67.7702 86.1025 67.7701C86.4896 67.7805 86.8747 67.7103 87.2334 67.5639C87.5922 67.4174 87.9168 67.198 88.1868 66.9194C88.4569 66.6407 88.6664 66.309 88.8024 65.9451C88.9383 65.5811 88.9976 65.1928 88.9765 64.8047Z" fill="rgb(29.75,27.1469,27.1469)" fill-rule="nonzero" />
	<path id="Vector" d="M107.666 58.5343L107.666 70.4416C107.666 74.6547 104.392 76.4357 101.068 76.4357C99.8981 76.5236 98.7265 76.2864 97.6818 75.7502C96.6372 75.2139 95.7598 74.3992 95.146 73.3956L98.3444 71.5398C98.6024 72.063 99.0135 72.4946 99.5226 72.7769C100.032 73.0592 100.615 73.1787 101.193 73.1194C101.563 73.1709 101.94 73.1382 102.295 73.0238C102.651 72.9094 102.976 72.7163 103.247 72.4587C103.518 72.2011 103.728 71.8856 103.861 71.5356C103.995 71.1855 104.048 70.8099 104.017 70.4365L104.017 69.2901C103.578 69.8292 103.019 70.2574 102.385 70.5406C101.752 70.8237 101.061 70.9538 100.368 70.9204C98.7191 70.8682 97.1553 70.1743 96.0075 68.9854C94.8596 67.7965 94.2178 66.2061 94.2178 64.5507C94.2178 62.8952 94.8596 61.3048 96.0075 60.1159C97.1553 58.927 98.7191 58.2331 100.368 58.1809C101.061 58.1475 101.752 58.2776 102.385 58.5608C103.019 58.8439 103.578 59.2721 104.017 59.8112L104.017 58.5318L107.666 58.5343ZM104.018 64.5526C104.043 63.9462 103.887 63.3462 103.57 62.8298C103.252 62.3133 102.788 61.904 102.237 61.6545C101.686 61.405 101.073 61.3268 100.477 61.4299C99.8808 61.5331 99.3293 61.8128 98.8931 62.2331C98.457 62.6535 98.1562 63.1952 98.0294 63.7885C97.9026 64.3819 97.9557 64.9997 98.1818 65.5625C98.4079 66.1254 98.7966 66.6074 99.298 66.9467C99.7994 67.2859 100.39 67.4668 100.995 67.466C101.389 67.4936 101.784 67.4381 102.155 67.3031C102.527 67.168 102.866 66.9565 103.15 66.682C103.435 66.4076 103.659 66.0763 103.809 65.7095C103.958 65.3427 104.03 64.9486 104.018 64.5526Z" fill="rgb(29.75,27.1469,27.1469)" fill-rule="nonzero" />
	<path id="Vector" d="M109.789 64.8047C109.784 63.489 110.167 62.2014 110.892 61.1049C111.617 60.0084 112.649 59.1523 113.859 58.6452C115.068 58.1381 116.401 58.0026 117.687 58.2561C118.974 58.5095 120.156 59.1404 121.085 60.0689C122.014 60.9974 122.647 62.1816 122.905 63.4716C123.163 64.7617 123.033 66.0994 122.533 67.3155C122.032 68.5315 121.183 69.5711 120.094 70.3026C119.004 71.0342 117.723 71.4247 116.412 71.4247C115.541 71.4346 114.678 71.2704 113.872 70.9416C113.065 70.6127 112.332 70.1259 111.716 69.5096C111.099 68.8932 110.611 68.1597 110.28 67.3519C109.949 66.544 109.782 65.6781 109.789 64.8047ZM119.286 64.8047C119.27 64.2376 119.088 63.6877 118.763 63.2238C118.437 62.7598 117.983 62.4024 117.456 62.1962C116.93 61.9901 116.354 61.9442 115.802 62.0645C115.249 62.1848 114.744 62.4659 114.35 62.8726C113.956 63.2793 113.69 63.7935 113.586 64.3511C113.481 64.9086 113.543 65.4847 113.763 66.0073C113.983 66.53 114.351 66.9759 114.822 67.2894C115.293 67.603 115.846 67.7702 116.412 67.7701C116.799 67.7805 117.184 67.7103 117.543 67.5639C117.901 67.4174 118.226 67.198 118.496 66.9194C118.766 66.6407 118.976 66.309 119.111 65.9451C119.247 65.5811 119.307 65.1928 119.286 64.8047Z" fill="rgb(29.75,27.1469,27.1469)" fill-rule="nonzero" />
	<path id="Vector" d="M124.783 55.1738C124.783 54.7274 124.915 54.2909 125.162 53.9197C125.409 53.5485 125.76 53.2592 126.171 53.0883C126.582 52.9175 127.034 52.8728 127.471 52.9599C127.907 53.047 128.308 53.262 128.622 53.5777C128.937 53.8933 129.151 54.2956 129.238 54.7334C129.325 55.1713 129.28 55.6252 129.11 56.0377C128.94 56.4501 128.651 56.8027 128.282 57.0507C127.912 57.2987 127.477 57.4311 127.032 57.4311C126.437 57.4252 125.869 57.1855 125.448 56.7634C125.028 56.3414 124.789 55.7707 124.783 55.1738ZM125.161 58.5345L128.911 58.5345L128.911 71.0751L125.156 71.0751L125.161 58.5345Z" fill="rgb(29.75,27.1469,27.1469)" fill-rule="nonzero" />
	<path id="Vector" d="M145.098 64.8047C145.141 65.6335 145.021 66.4627 144.744 67.2447C144.467 68.0266 144.038 68.7459 143.483 69.3611C142.928 69.9763 142.257 70.4753 141.51 70.8295C140.762 71.1836 139.951 71.3859 139.125 71.4246C138.431 71.4627 137.736 71.3451 137.092 71.0804C136.449 70.8158 135.872 70.4106 135.403 69.8944L135.403 76.09L131.654 76.09L131.654 58.5344L135.403 58.5344L135.403 59.7124C135.872 59.1966 136.449 58.7918 137.093 58.5274C137.736 58.2629 138.431 58.1455 139.125 58.1835C139.951 58.2221 140.762 58.4243 141.51 58.7785C142.258 59.1326 142.929 59.6317 143.484 60.2471C144.039 60.8625 144.468 61.582 144.745 62.3642C145.022 63.1463 145.142 63.9758 145.098 64.8047ZM141.349 64.8047C141.335 64.2178 141.148 63.6483 140.812 63.1674C140.477 62.6865 140.007 62.3156 139.463 62.1012C138.918 61.8868 138.322 61.8383 137.751 61.9619C137.179 62.0854 136.656 62.3755 136.247 62.7958C135.839 63.2162 135.563 63.7481 135.454 64.3249C135.346 64.9018 135.409 65.498 135.636 66.039C135.864 66.58 136.245 67.0416 136.732 67.3662C137.22 67.6908 137.792 67.8639 138.377 67.8639C138.778 67.8818 139.179 67.8143 139.553 67.6659C139.927 67.5175 140.265 67.2914 140.546 67.0026C140.827 66.7137 141.043 66.3686 141.182 65.9898C141.32 65.611 141.377 65.2072 141.349 64.8047Z" fill="rgb(29.75,27.1469,27.1469)" fill-rule="nonzero" />
	<path id="Vector" d="M156.666 67.3117C156.666 70.196 154.168 71.4248 151.469 71.4248C150.379 71.5239 149.284 71.2925 148.326 70.7604C147.368 70.2284 146.592 69.4202 146.096 68.4404L149.344 66.5846C149.475 67.0375 149.757 67.4315 150.143 67.7008C150.529 67.97 150.996 68.0983 151.464 68.0641C152.363 68.0641 152.814 67.788 152.814 67.2876C152.814 65.9069 146.665 66.6353 146.665 62.2967C146.665 59.5619 148.965 58.1837 151.564 58.1837C152.541 58.1526 153.508 58.3852 154.365 58.8571C155.222 59.329 155.937 60.0229 156.436 60.8666L153.238 62.5969C153.097 62.2685 152.864 61.9887 152.566 61.7925C152.269 61.5963 151.92 61.4923 151.564 61.4936C150.914 61.4936 150.514 61.747 150.514 62.1954C150.519 63.6255 156.666 62.6717 156.666 67.3117Z" fill="rgb(29.75,27.1469,27.1469)" fill-rule="nonzero" />
	<path id="Vector" d="M170.36 58.5344L170.36 71.0751L166.611 71.0751L166.611 69.8957C166.178 70.4161 165.629 70.8261 165.008 71.0921C164.387 71.3581 163.712 71.4725 163.039 71.4259C160.514 71.4259 158.369 69.6208 158.369 66.2323L158.369 58.5344L162.117 58.5344L162.117 65.6813C162.086 65.98 162.12 66.2819 162.217 66.5661C162.313 66.8504 162.471 67.11 162.677 67.327C162.884 67.544 163.136 67.7132 163.415 67.8228C163.693 67.9323 163.992 67.9796 164.291 67.9614C165.665 67.9614 166.615 67.1596 166.615 65.3786L166.615 58.5382L170.36 58.5344Z" fill="rgb(29.75,27.1469,27.1469)" fill-rule="nonzero" />
	<path id="Vector" d="M191.855 63.3747L191.855 71.0739L188.106 71.0739L188.106 63.7003C188.106 62.4462 187.507 61.6444 186.308 61.6444C185.058 61.6444 184.358 62.5222 184.358 64.0017L184.358 71.0739L180.61 71.0739L180.61 63.7003C180.61 62.4462 180.01 61.6444 178.81 61.6444C177.561 61.6444 176.861 62.5222 176.861 64.0017L176.861 71.0739L173.113 71.0739L173.113 58.5333L176.861 58.5333L176.861 59.686C177.25 59.1746 177.76 58.7691 178.345 58.5064C178.93 58.2437 179.571 58.1323 180.21 58.1824C180.851 58.1509 181.49 58.2867 182.064 58.5767C182.637 58.8666 183.126 59.3007 183.483 59.8367C183.898 59.276 184.448 58.8301 185.082 58.5408C185.716 58.2515 186.412 58.1282 187.107 58.1824C189.976 58.1837 191.855 60.2396 191.855 63.3747Z" fill="rgb(29.75,27.1469,27.1469)" fill-rule="nonzero" />
	<path id="Vector" d="M195.026 58.4573C196.562 58.4573 197.807 57.2073 197.807 55.6654C197.807 54.1235 196.562 52.8735 195.026 52.8735C193.489 52.8735 192.244 54.1235 192.244 55.6654C192.244 57.2073 193.489 58.4573 195.026 58.4573Z" fill="rgb(29.75,27.1469,27.1469)" fill-rule="evenodd" />
</svg>
