<svg viewBox="0 0 42 41.8359" xmlns="http://www.w3.org/2000/svg" xmlns:xlink="http://www.w3.org/1999/xlink" width="42.000000" height="41.835938" fill="none" customFrame="#000000">
	<g id="Icon">
		<path id="Vector" d="M5.90625 0C4.53198 0 3.35311 0.849516 2.86527 2.05078L0 2.05078L0 4.51172L2.86527 4.51172C3.35311 5.71298 4.53198 6.5625 5.90625 6.5625C7.71553 6.5625 9.1875 5.09053 9.1875 3.28125C9.1875 1.47197 7.71553 0 5.90625 0Z" fill="rgb(29.75,27.1469,27.1469)" fill-rule="nonzero" transform="matrix(1,0,0,-1,27.0703,6.97266)" />
		<path id="Vector" d="M11.6484 2.46094C11.1091 2.46094 10.6002 2.59252 10.1509 2.82409L7.10415 0.285142C6.883 0.1009 6.60425 0 6.31641 0L0 0L0 2.46094L5.87089 2.46094L8.54224 4.6871C8.42937 5.01843 8.36719 5.37305 8.36719 5.74219C8.36719 7.55147 9.83916 9.02344 11.6484 9.02344C13.4577 9.02344 14.9297 7.55147 14.9297 5.74219C14.9297 3.93291 13.4577 2.46094 11.6484 2.46094Z" fill="rgb(29.75,27.1469,27.1469)" fill-rule="nonzero" transform="matrix(1,0,0,-1,27.0703,16.4062)" />
		<path id="Vector" d="M11.6484 0C10.2742 0 9.0953 0.849516 8.60746 2.05078L0 2.05078L0 4.51172L8.60746 4.51172C9.0953 5.71298 10.2742 6.5625 11.6484 6.5625C13.4577 6.5625 14.9297 5.09053 14.9297 3.28125C14.9297 1.47197 13.4577 0 11.6484 0Z" fill="rgb(29.75,27.1469,27.1469)" fill-rule="nonzero" transform="matrix(1,0,0,-1,27.0703,24.1992)" />
		<path id="Vector" d="M7.10415 8.73821L10.1509 6.19927C10.6002 6.43092 11.1091 6.5625 11.6484 6.5625C13.4577 6.5625 14.9297 5.09053 14.9297 3.28125C14.9297 1.47197 13.4577 0 11.6484 0C9.83916 0 8.36719 1.47197 8.36719 3.28125C8.36719 3.65039 8.42937 4.00501 8.54224 4.33634L5.87089 6.5625L0 6.5625L0 9.02344L6.31641 9.02344C6.60425 9.02344 6.883 8.92254 7.10415 8.73821Z" fill="rgb(29.75,27.1469,27.1469)" fill-rule="nonzero" transform="matrix(1,0,0,-1,27.0703,34.4531)" />
		<path id="Vector" d="M5.90625 6.5625C7.71553 6.5625 9.1875 5.09053 9.1875 3.28125C9.1875 1.47197 7.71553 0 5.90625 0C4.53198 0 3.35311 0.849516 2.86527 2.05078L0 2.05078L0 4.51172L2.86527 4.51172C3.35311 5.71298 4.53198 6.5625 5.90625 6.5625Z" fill="rgb(29.75,27.1469,27.1469)" fill-rule="nonzero" transform="matrix(1,0,0,-1,27.0703,41.4258)" />
		<path id="Vector" d="M0 8.61328C0 13.3626 3.86392 17.2266 8.61328 17.2266C9.93357 17.2266 11.1852 16.9276 12.3047 16.3944L12.3047 0.832207C11.1852 0.299004 9.93357 0 8.61328 0C3.86392 0 0 3.86392 0 8.61328Z" fill="rgb(29.75,27.1469,27.1469)" fill-rule="nonzero" transform="matrix(1,0,0,-1,12.3047,29.5312)" />
		<path id="Vector" d="M23.3789 0L18.457 0C17.7775 0 17.2266 0.550922 17.2266 1.23047L17.2266 2.83213C14.9176 3.3025 12.708 4.21788 10.7399 5.51939L9.60701 4.38662C9.12647 3.90608 8.34742 3.90608 7.86688 4.38662L4.38662 7.86688C3.90608 8.34734 3.90608 9.12647 4.38662 9.60701L5.51939 10.7399C4.21788 12.708 3.3025 14.9176 2.83213 17.2266L1.23047 17.2266C0.550922 17.2266 0 17.7775 0 18.457L0 23.3789C0 24.0585 0.550922 24.6094 1.23047 24.6094L2.83213 24.6094C3.3025 26.9183 4.21788 29.1279 5.51939 31.0962L4.38654 32.229C4.15579 32.4598 4.02618 32.7727 4.02618 33.099C4.02618 33.4254 4.15579 33.7382 4.38654 33.969L7.86688 37.4493C8.34742 37.9299 9.12647 37.9299 9.60701 37.4493L10.7399 36.3165C12.708 37.6181 14.9176 38.5334 17.2266 39.0038L17.2266 40.6055C17.2266 41.285 17.7775 41.8359 18.457 41.8359L23.3789 41.8359C24.0585 41.8359 24.6094 41.285 24.6094 40.6055L24.6094 31.3587C23.4542 31.7684 22.2118 31.9922 20.918 31.9922C14.8116 31.9922 9.84375 27.0243 9.84375 20.918C9.84375 14.8116 14.8116 9.84375 20.918 9.84375C22.2118 9.84375 23.4542 10.0675 24.6094 10.4772L24.6094 1.23047C24.6094 0.550922 24.0585 0 23.3789 0Z" fill="rgb(29.75,27.1469,27.1469)" fill-rule="nonzero" transform="matrix(1,0,0,-1,0,41.8359)" />
	</g>
</svg>
