<svg viewBox="0 0 44 49" xmlns="http://www.w3.org/2000/svg" xmlns:xlink="http://www.w3.org/1999/xlink" width="44.000000" height="49.000000" fill="none" customFrame="#000000">
	<defs>
		<filter id="pixso_custom_mask_type_alpha">
			<feColorMatrix type="matrix" values="0 0 0 0 1 0 0 0 0 1 0 0 0 0 1 0 0 0 1 0 " />
		</filter>
	</defs>
	<mask id="mask_0" width="23.121067" height="27.669098" x="0.000000" y="0.000000" maskUnits="objectBoundingBox">
		<g filter="url(#pixso_custom_mask_type_alpha)">
			<g id="Group">
				<g id="Group">
					<path id="Vector" d="M3.5285 14.4818C3.57776 15.0402 3.88523 15.5656 4.39978 15.8602C4.82693 16.1048 5.26716 16.2847 5.71685 16.4064C5.46348 17.2806 4.99792 18.5457 4.16922 19.9007C3.3821 21.1883 3.37273 22.7423 4.14445 24.1645C5.28135 26.2606 7.79174 27.6691 10.3922 27.6691C12.1782 27.6691 13.766 26.8283 14.8627 25.3014C16.4303 23.1184 16.7777 19.8968 15.7913 16.6853C14.8771 13.7082 16.0998 12.12 16.9088 11.4373C17.5684 12.0871 18.463 12.4878 19.4517 12.4878C21.4776 12.4878 23.1211 10.8082 23.1211 8.73616C23.1211 6.66411 21.4776 4.98501 19.4517 4.98501C17.4248 4.98501 15.7822 6.66459 15.7822 8.73616C15.7822 9.0279 15.8178 9.31025 15.8793 9.58283C14.3515 10.7252 12.5879 13.2966 13.8221 17.3169C14.6004 19.852 14.3616 22.4327 13.198 24.0525C12.7047 24.74 11.8168 25.5593 10.3917 25.5593C8.54779 25.5593 6.7208 24.5648 5.94926 23.1416C5.66462 22.6166 5.42896 21.8214 5.91976 21.0185C7.01584 19.2249 7.56443 17.5512 7.82458 16.5282C8.43376 16.4344 9.02856 16.2335 9.60072 15.9212C10.1107 15.6428 10.4237 15.1389 10.4926 14.5943C12.917 12.3538 14.0363 8.31686 14.1007 8.0806C14.2315 7.59595 14.008 7.0984 13.5916 6.87154C13.9264 3.84091 12.8291 2.31345 12.1671 1.69128C12.2175 1.40011 12.1036 1.08865 11.8534 0.921722L10.6368 0.108913C10.319 -0.103252 9.91951 0.00382641 9.74536 0.349531L9.16569 1.49477C8.99108 1.84056 9.145 2.20932 9.50971 2.31933L10.8851 2.7338C11.2339 2.83889 11.6517 2.66855 11.8491 2.35613C12.3972 2.94644 13.1866 4.26069 12.9147 6.76778C12.5409 6.84052 12.2205 7.11889 12.1119 7.51913C11.7815 8.7317 10.827 11.2363 9.40979 12.7382C8.9587 12.56 8.44007 12.5688 7.98008 12.8192C7.6805 12.9828 7.38751 13.0652 7.08681 13.0716L7.02484 13.0716C6.708 13.0647 6.39859 12.9734 6.08175 12.7922C5.63307 12.5349 5.12205 12.5123 4.67143 12.6748C3.28598 11.1668 2.3518 8.7152 2.0268 7.51932C1.91797 7.12012 1.59631 6.84109 1.2238 6.76844C0.951406 4.26135 1.74048 2.9471 2.28936 2.3568C2.48697 2.66912 2.90429 2.83955 3.25304 2.73437L4.62847 2.3199C4.99263 2.20989 5.14757 1.84056 4.9725 1.49533L4.39328 0.350005C4.21867 0.00420579 3.81917 -0.102778 3.50187 0.109387L2.28407 0.922765C2.03403 1.08969 1.92038 1.40106 1.97057 1.69232C1.30953 2.31459 0.211317 3.84138 0.546338 6.87249C0.129579 7.09945 -0.0930874 7.5969 0.03708 8.08212C0.100355 8.31344 1.18604 12.2217 3.5285 14.4818ZM19.4517 7.27083C20.2424 7.27083 20.8847 7.92648 20.8847 8.73635C20.8847 9.54565 20.2424 10.2018 19.4517 10.2018C18.6599 10.2018 18.0181 9.54565 18.0181 8.73635C18.0181 7.92639 18.6595 7.27083 19.4517 7.27083Z" fill="rgb(0,0,0)" fill-rule="nonzero" transform="matrix(-1,0,0,1,30.0833,0)" />
				</g>
			</g>
		</g>
	</mask>
	<rect id="Icon" width="44.000000" height="49.000000" x="0.000000" y="0.000000" transform="matrix(-1,0,0,1,44,0)" />
	<g id="Group">
		<g id="Group">
			<path id="Vector" d="M43.7472 9.85004C43.532 9.5817 43.2109 9.42507 42.8741 9.42507L38.5919 9.42507C37.5351 6.57581 36.1584 3.78414 34.5936 2.73035C29.1802 -0.910116 14.8217 -0.910116 9.40843 2.73035C7.84245 3.78529 6.47138 6.58042 5.409 9.42507L1.12679 9.42507C0.78656 9.42507 0.466606 9.5817 0.253678 9.85004C0.0396244 10.1172 -0.0459972 10.4708 0.023852 10.8105L0.658127 13.9523C0.766281 14.4879 1.22819 14.8702 1.76107 14.8702L3.02962 14.8702C1.80501 16.3144 1.21129 18.1329 1.2034 19.9526C1.19552 22.2007 2.03033 24.2322 3.55687 25.6695C3.57377 25.6845 3.59067 25.6949 3.60644 25.7098L3.60644 30.1058C3.60644 31.0583 4.36351 31.8333 5.29634 31.8333L9.24619 31.8333C10.179 31.8333 10.9361 31.0583 10.9361 30.1058L10.9361 28.3391L33.0636 28.3391L33.0636 30.1058C33.0636 31.0583 33.8207 31.8333 34.7535 31.8333L38.7034 31.8333C39.634 31.8333 40.3933 31.0583 40.3933 30.1058L40.3933 25.7962C42.0133 24.2795 42.7873 22.1926 42.7975 20.1092C42.8042 18.2274 42.1835 16.3421 40.8867 14.8679L42.2398 14.8679C42.7749 14.8679 43.2368 14.4856 43.3427 13.9489L43.9781 10.8082C44.0435 10.4708 43.9612 10.1195 43.7472 9.85004ZM11.2639 5.61531C15.5788 2.71192 28.4209 2.71192 32.7335 5.61531C33.5717 6.17733 34.6499 8.4496 35.6379 11.2321L8.36181 11.2321C9.34759 8.45075 10.4257 6.17963 11.2639 5.61531ZM6.21001 20.3856C6.21001 18.5084 7.69937 16.9882 9.53461 16.9882C11.3721 16.9882 12.8592 18.5084 12.8592 20.3856C12.8592 22.2629 11.3721 23.7842 9.53461 23.7842C7.69937 23.7842 6.21001 22.2629 6.21001 20.3856ZM34.5091 23.7842C32.6738 23.7842 31.1845 22.2629 31.1845 20.3856C31.1845 18.5084 32.6738 16.9882 34.5091 16.9882C36.3465 16.9882 37.8337 18.5084 37.8337 20.3856C37.8337 22.2629 36.3443 23.7842 34.5091 23.7842Z" fill="rgb(29.75,27.1469,27.1469)" fill-rule="nonzero" transform="matrix(-1,0,0,1,44,17.1666)" />
		</g>
	</g>
	<g id="Mask Group" mask="url(#mask_0)">
		<path id="Rectangle 16" d="M0 0L33.0289 0L36.4153 8.86786L33.0289 22.1934L0 22.1934L0 0Z" fill="rgb(29.75,27.1469,27.1469)" fill-rule="nonzero" transform="matrix(-1,0,0,1,51.5149,-2.65564)" />
	</g>
</svg>
