<svg class="card_img" viewBox="0 0 44 38.5" xmlns="http://www.w3.org/2000/svg" xmlns:xlink="http://www.w3.org/1999/xlink" width="44.000000" height="38.500000" fill="none" customFrame="#000000">
	<g id="Icon">
		<path id="Vector" d="M38.5 1.83322C38.5 0.82077 37.6792 0 36.6668 0L29.3332 0C28.3208 0 27.5 0.82077 27.5 1.83322L27.5 5.5L38.5 5.5L38.5 1.83322Z" fill="rgb(29.75,27.1469,27.1469)" fill-rule="nonzero" />
		<path id="Vector" d="M16.5 1.83322C16.5 0.82077 15.6792 0 14.6668 0L7.33322 0C6.32077 0 5.5 0.82077 5.5 1.83322L5.5 5.5L16.5 5.5L16.5 1.83322Z" fill="rgb(29.75,27.1469,27.1469)" fill-rule="nonzero" />
		<path id="Vector" d="M0 7.33325L0 34.8333C0 35.8457 0.82077 36.6668 1.83322 36.6668L5.5 36.6668L5.5 38.5L9.16678 38.5L9.16678 36.6668L34.8332 36.6668L34.8332 38.5L38.5 38.5L38.5 36.6668L42.1668 36.6668C43.1792 36.6668 44 35.8457 44 34.8333L44 7.33325L0 7.33325ZM14.6668 33L18.3332 22L12.8332 22L25.6668 11L22 22L27.5 22L14.6668 33Z" fill="rgb(29.75,27.1469,27.1469)" fill-rule="nonzero" />
	</g>
</svg>
